<?xml version="1.0" encoding="utf-8"?>
<!-- Generator: Adobe Illustrator 23.0.2, SVG Export Plug-In . SVG Version: 6.00 Build 0)  -->
<svg version="1.1" id="Capa_1" xmlns="http://www.w3.org/2000/svg" xmlns:xlink="http://www.w3.org/1999/xlink" x="0px" y="0px"
	 viewBox="0 0 422 90" style="enable-background:new 0 0 422 90;" xml:space="preserve">
<style type="text/css">
	.st0{fill:#FFFFFF;}
	.st1{fill:#14D9D9;}
</style>
<g transform="matrix(6.054490506946714,0,0,6.054490506946714,43.39801896218958,-2.558022570709525)">
	<path class="st0" d="M8.9,7.8L8.9,7.8L8.9,7.8c0,1-0.2,1.9-0.6,2.6l0,0l0,0c-0.4,0.8-0.9,1.3-1.7,1.7l0,0l0,0
		c-0.7,0.4-1.6,0.6-2.5,0.6l0,0l0,0c-1,0-1.8-0.2-2.6-0.6l0,0l0,0c-0.7-0.4-1.3-1-1.6-1.7l0,0l0,0c-0.4-0.8-0.6-1.6-0.6-2.7l0,0l0,0
		c0-1.5,0.4-2.7,1.3-3.6l0,0l0,0c0.8-0.9,2-1.3,3.5-1.3l0,0l0,0c1,0,1.8,0.2,2.5,0.6l0,0l0,0c0.7,0.4,1.3,1,1.6,1.7l0,0l0,0
		C8.7,5.9,8.9,6.8,8.9,7.8z M7.6,7.8L7.6,7.8L7.6,7.8c0-1.2-0.3-2.1-0.9-2.8l0,0l0,0C6.1,4.3,5.2,4,4.1,4l0,0l0,0C3,4,2.2,4.3,1.6,5
		l0,0l0,0C1,5.7,0.7,6.6,0.7,7.8l0,0l0,0C0.7,9,1,10,1.6,10.7l0,0l0,0c0.6,0.7,1.4,1.1,2.5,1.1l0,0l0,0c1.1,0,2-0.3,2.6-1l0,0l0,0
		C7.3,10,7.6,9.1,7.6,7.8z M10.3,7.8L10.3,7.8L10.3,7.8c0-1.6,0.4-2.8,1.3-3.6l0,0l0,0c0.8-0.9,2-1.3,3.5-1.3l0,0l0,0
		c1.1,0,1.9,0.2,2.6,0.5l0,0l0,0c0.7,0.4,1.2,0.9,1.5,1.7l0,0L18,5.5l0,0c-0.3-0.5-0.7-0.9-1.1-1.2l0,0l0,0C16.3,4.1,15.7,4,15,4
		l0,0l0,0c-1.1,0-2,0.3-2.5,1l0,0l0,0c-0.6,0.7-0.9,1.6-0.9,2.8l0,0l0,0c0,1.2,0.3,2.2,0.9,2.9l0,0l0,0c0.6,0.7,1.5,1.1,2.6,1.1l0,0
		l0,0c0.6,0,1.2-0.1,1.8-0.3l0,0l0,0c0.5-0.2,1-0.4,1.3-0.8l0,0V8.9h-2.9V7.8h4.1v3.3l0,0c-0.5,0.5-1.1,0.9-1.9,1.2l0,0l0,0
		c-0.7,0.3-1.5,0.4-2.4,0.4l0,0l0,0c-1,0-1.9-0.2-2.6-0.6l0,0l0,0c-0.7-0.4-1.3-1-1.7-1.7l0,0l0,0C10.5,9.7,10.3,8.8,10.3,7.8z
		 M29.8,12.7h-1.3l-1.1-2.8H23l-1.1,2.8h-1.4L24.4,3h1.5L29.8,12.7z M25.3,4.6L25.1,4L25,4.2l0,0c-0.1,0.4-0.3,0.9-0.5,1.5l0,0
		l-1.2,3.2h3.6l-1.2-3.2l0,0C25.6,5.3,25.5,5,25.3,4.6L25.3,4.6z M39.2,7.8L39.2,7.8L39.2,7.8c0,1-0.2,1.9-0.6,2.6l0,0l0,0
		c-0.4,0.7-0.9,1.3-1.6,1.7l0,0l0,0c-0.7,0.4-1.5,0.6-2.5,0.6l0,0h-3.6V3h3.2l0,0c1.6,0,2.9,0.4,3.8,1.2l0,0l0,0
		C38.8,5.1,39.2,6.3,39.2,7.8z M37.9,7.8L37.9,7.8L37.9,7.8c0-1.2-0.3-2.1-1-2.7l0,0l0,0c-0.7-0.6-1.6-0.9-2.8-0.9l0,0h-1.8v7.5h2.2
		l0,0c0.7,0,1.3-0.2,1.9-0.5l0,0l0,0c0.5-0.3,0.9-0.8,1.2-1.3l0,0l0,0C37.8,9.2,37.9,8.6,37.9,7.8z M47.1,9.2h-5.3l0,0
		c0,0.8,0.2,1.5,0.5,2l0,0l0,0c0.4,0.5,0.9,0.7,1.5,0.7l0,0l0,0c0.5,0,1-0.1,1.3-0.3l0,0l0,0c0.3-0.2,0.5-0.5,0.7-0.8l0,0l1.1,0.3
		l0,0c-0.4,1.2-1.4,1.8-3,1.8l0,0l0,0c-1.1,0-1.9-0.3-2.5-1l0,0l0,0c-0.6-0.6-0.9-1.6-0.9-2.9l0,0l0,0c0-1.2,0.3-2.2,0.9-2.8l0,0
		l0,0c0.6-0.7,1.4-1,2.5-1l0,0l0,0C46.1,5.2,47.2,6.5,47.1,9.2L47.1,9.2L47.1,9.2L47.1,9.2z M41.8,8.3h4l0,0
		c-0.1-0.8-0.3-1.3-0.6-1.7l0,0l0,0c-0.3-0.4-0.8-0.5-1.4-0.5l0,0l0,0c-0.6,0-1.1,0.2-1.4,0.6l0,0l0,0C42,7,41.8,7.6,41.8,8.3
		L41.8,8.3z M54.6,5.3l-2.8,7.4h-1.5l-2.7-7.4H49l1.6,4.8l0,0c0.1,0.2,0.2,0.7,0.5,1.6l0,0l0.2-0.8l0.3-0.8l1.7-4.8H54.6z
		 M61.2,10.6L61.2,10.6L61.2,10.6c0,0.7-0.3,1.2-0.8,1.6l0,0l0,0c-0.5,0.4-1.3,0.6-2.2,0.6l0,0l0,0c-0.9,0-1.6-0.2-2.1-0.5l0,0l0,0
		c-0.5-0.3-0.8-0.8-1-1.4l0,0l1.1-0.2l0,0c0.1,0.4,0.3,0.7,0.6,0.9l0,0l0,0c0.3,0.2,0.8,0.3,1.4,0.3l0,0l0,0c0.6,0,1.1-0.1,1.4-0.3
		l0,0l0,0c0.3-0.2,0.4-0.5,0.4-0.9l0,0l0,0c0-0.3-0.1-0.5-0.3-0.7l0,0l0,0c-0.2-0.2-0.5-0.3-1-0.4l0,0l-0.9-0.2l0,0
		c-0.7-0.2-1.2-0.4-1.5-0.5l0,0l0,0c-0.3-0.2-0.5-0.4-0.7-0.6l0,0l0,0c-0.2-0.3-0.3-0.6-0.3-0.9l0,0l0,0c0-0.7,0.2-1.2,0.7-1.5l0,0
		l0,0c0.5-0.4,1.2-0.5,2.1-0.5l0,0l0,0c0.8,0,1.5,0.1,2,0.4l0,0l0,0c0.5,0.3,0.8,0.7,0.9,1.4l0,0l-1.1,0.1l0,0
		c-0.1-0.3-0.3-0.6-0.5-0.8l0,0l0,0c-0.3-0.2-0.7-0.3-1.2-0.3l0,0l0,0c-0.6,0-1,0.1-1.2,0.3l0,0l0,0c-0.3,0.2-0.4,0.4-0.4,0.8l0,0
		l0,0c0,0.2,0.1,0.4,0.2,0.5l0,0l0,0c0,0,0.2,0.1,0.4,0.2l0,0l0,0c0.2,0.1,0.7,0.2,1.4,0.4l0,0l0,0c0.6,0.2,1.1,0.3,1.4,0.5l0,0l0,0
		c0.3,0.1,0.5,0.3,0.7,0.5l0,0l0,0C60.8,9.5,61,9.6,61,9.9l0,0l0,0C61.1,10.1,61.2,10.3,61.2,10.6z"/>
</g>
<g id="ec2a3774-90f3-41f2-b9ec-3cec8cca467f" transform="matrix(1.2311903046769341,0,0,1.2311903046769341,-47.6902940213505,-16.109509553808707)">
	<g>
		<path id="a" class="st1" d="M51.2,19.2c-0.5,1.2-0.8,2.6-0.8,4.2v14.3c0,3.3-0.2,5.6-0.7,6.8c-0.5,1.3-1.4,2.1-2.8,2.3
			C46,47,45.4,47.4,45,48c-0.3,0.5-0.5,1.2-0.5,2.1s0.2,1.6,0.5,2.2c0.3,0.6,0.9,0.9,1.8,1.1c1.5,0.3,2.5,1.1,3,2.3
			c0.4,1.2,0.7,3.5,0.7,6.8v14.3c0,1.6,0.3,3,0.8,4.2c0.4,1.2,1.1,2.3,2,3.1c0.9,0.9,2,1.5,3.3,1.9c1.3,0.5,2.7,0.7,4.3,0.7h3.3
			c0.9,0,1.6-0.3,2.1-0.8c0.4-0.5,0.6-1.2,0.6-2.1c0-1-0.2-1.8-0.6-2.3c-0.4-0.6-1.1-0.8-2.1-0.8h-0.9c-2.4,0-4-0.4-5-1.2
			c-0.8-0.8-1.2-2.3-1.2-4.6V63.2c0-4.9-0.3-8.1-0.8-9.7c-0.5-1.5-1.7-2.7-3.5-3.6c1.9-0.8,3.1-2,3.5-3.5c0.6-1.6,0.8-4.8,0.8-9.7
			V25c0-2.2,0.4-3.7,1.3-4.5c0.9-0.8,2.5-1.3,4.9-1.3h0.9c1,0,1.7-0.3,2.1-0.8s0.6-1.2,0.6-2.1s-0.2-1.6-0.6-2.1
			c-0.4-0.5-1.1-0.8-2.1-0.8h-3.3c-1.6,0-3,0.2-4.3,0.6c-1.3,0.5-2.3,1.1-3.3,1.9C52.4,16.9,51.7,17.9,51.2,19.2z"/>
	</g>
</g>
</svg>
